<svg xmlns="http://www.w3.org/2000/svg" version="1.1" xlink="http://www.w3.org/1999/xlink" xmlns:svgjs="http://svgjs.com/svgjs" width="300" height="50.324817201562865"><defs id="SvgjsDefs1097"><linearGradient id="SvgjsLinearGradient1ShiS-WAWZ" gradientUnits="userSpaceOnUse" x1="-2.1316282072803002e-14" y1="77.83571727175057" x2="77.83571727175054" y2="-7.105427357601e-15"><stop id="SvgjsStop1100" stop-color="#5af2a2" offset="0"/><stop id="SvgjsStop1101" stop-color="#0fbe62" offset="1"/></linearGradient></defs><g id="SvgjsG1098" transform="scale(0.6465517241379312)" opacity="1"><g id="SvgjsG1102" class="EtOo3eIY1" transform="translate(0, 0) scale(1)" light-content="false" fill="url(#SvgjsLinearGradient1ShiS-WAWZ)"><path d="				M 38.41785863587527, 38.91785863587527
				m 0, -38.91785863587527
				a 38.91785863587527, 38.91785863587527, 0, 1, 0, 1, 0
				Z
			"/></g><g id="SvgjsG1103" class="text" transform="translate(375.2021284013274, 59.30577801098711) scale(1)" light-content="false" fill="#212422"><path d="M-61.01 -5.34C-59.98 -7.08 -59.47 -8.97 -59.47 -11.03C-59.47 -13.62 -60.04 -15.72 -61.18 -17.32C-62.33 -18.92 -63.71 -20.12 -65.33 -20.92C-66.95 -21.72 -69.05 -22.58 -71.64 -23.49C-73.51 -24.1 -74.98 -24.65 -76.07 -25.15C-77.16 -25.64 -78.05 -26.28 -78.76 -27.06C-79.46 -27.84 -79.81 -28.82 -79.81 -30.01C-79.81 -31.49 -79.36 -32.62 -78.44 -33.41C-77.53 -34.19 -76.33 -34.58 -74.84 -34.58C-73.13 -34.58 -71.77 -34.11 -70.78 -33.18C-69.79 -32.24 -69.18 -31.05 -68.96 -29.61L-60.27 -29.61C-60.61 -33.03 -62.05 -35.78 -64.58 -37.84C-67.12 -39.89 -70.52 -40.92 -74.78 -40.92C-78.9 -40.92 -82.21 -39.92 -84.7 -37.92C-87.2 -35.92 -88.44 -33.19 -88.44 -29.72C-88.44 -27.2 -87.88 -25.17 -86.76 -23.6C-85.63 -22.04 -84.27 -20.85 -82.67 -20.03C-81.07 -19.21 -79.01 -18.38 -76.5 -17.55C-74.56 -16.9 -73.03 -16.33 -71.93 -15.83C-70.82 -15.34 -69.91 -14.68 -69.18 -13.86C-68.46 -13.04 -68.1 -12 -68.1 -10.74C-68.1 -9.33 -68.55 -8.18 -69.44 -7.29C-70.34 -6.39 -71.62 -5.94 -73.3 -5.94C-75.17 -5.94 -76.66 -6.49 -77.79 -7.57C-78.91 -8.66 -79.57 -10.02 -79.76 -11.66L-88.33 -11.66C-88.14 -9.22 -87.37 -7.09 -86.02 -5.26C-84.66 -3.43 -82.86 -2.03 -80.61 -1.06C-78.37 -0.09 -75.81 0.4 -72.96 0.4C-70.06 0.4 -67.6 -0.12 -65.58 -1.17C-63.56 -2.22 -62.04 -3.61 -61.01 -5.34Z M-27.4 -30.12C-29.54 -31.42 -31.94 -32.06 -34.61 -32.06C-37.27 -32.06 -39.55 -31.43 -41.44 -30.18C-43.32 -28.92 -44.67 -27.22 -45.47 -25.09L-45.47 -31.66L-53.52 -31.66L-53.52 15.09L-45.47 15.09L-45.47 -6.63C-44.67 -4.5 -43.32 -2.79 -41.44 -1.51C-39.55 -0.24 -37.27 0.4 -34.61 0.4C-31.94 0.4 -29.54 -0.25 -27.4 -1.54C-25.27 -2.84 -23.6 -4.72 -22.4 -7.17C-21.2 -9.63 -20.6 -12.52 -20.6 -15.83C-20.6 -19.15 -21.2 -22.03 -22.4 -24.49C-23.6 -26.95 -25.27 -28.82 -27.4 -30.12ZM-43.15 -22.55C-41.57 -24.2 -39.56 -25.03 -37.12 -25.03C-34.61 -25.03 -32.59 -24.21 -31.06 -22.58C-29.54 -20.94 -28.78 -18.69 -28.78 -15.83C-28.78 -12.97 -29.54 -10.74 -31.06 -9.12C-32.59 -7.5 -34.61 -6.69 -37.12 -6.69C-39.56 -6.69 -41.57 -7.52 -43.15 -9.17C-44.73 -10.83 -45.52 -13.05 -45.52 -15.83C-45.52 -18.65 -44.73 -20.89 -43.15 -22.55Z M4.37 -30.18C2.47 -31.43 0.18 -32.06 -2.49 -32.06C-5.15 -32.06 -7.55 -31.42 -9.69 -30.12C-11.82 -28.82 -13.49 -26.95 -14.69 -24.49C-15.89 -22.03 -16.49 -19.15 -16.49 -15.83C-16.49 -12.52 -15.89 -9.63 -14.69 -7.17C-13.49 -4.72 -11.82 -2.84 -9.69 -1.54C-7.55 -0.25 -5.15 0.4 -2.49 0.4C0.18 0.4 2.47 -0.24 4.37 -1.51C6.28 -2.79 7.63 -4.5 8.43 -6.63L8.43 0L16.43 0L16.43 -31.66L8.43 -31.66L8.43 -25.09C7.63 -27.22 6.28 -28.92 4.37 -30.18ZM-6.03 -22.58C-4.51 -24.21 -2.49 -25.03 0.03 -25.03C2.47 -25.03 4.48 -24.2 6.06 -22.55C7.64 -20.89 8.43 -18.65 8.43 -15.83C8.43 -13.05 7.64 -10.83 6.06 -9.17C4.48 -7.52 2.47 -6.69 0.03 -6.69C-2.49 -6.69 -4.51 -7.5 -6.03 -9.12C-7.55 -10.74 -8.32 -12.97 -8.32 -15.83C-8.32 -18.69 -7.55 -20.94 -6.03 -22.58Z M48.18 -28.75C45.46 -30.96 42.06 -32.06 37.98 -32.06C34.89 -32.06 32.15 -31.42 29.75 -30.12C27.35 -28.82 25.48 -26.95 24.15 -24.49C22.81 -22.03 22.15 -19.15 22.15 -15.83C22.15 -12.52 22.81 -9.64 24.15 -7.2C25.48 -4.76 27.35 -2.89 29.75 -1.57C32.15 -0.26 34.89 0.4 37.98 0.4C42.06 0.4 45.46 -0.7 48.18 -2.91C50.9 -5.12 52.61 -8.13 53.3 -11.94L44.78 -11.94C44.44 -10.27 43.66 -8.94 42.44 -7.97C41.22 -7 39.67 -6.52 37.81 -6.52C35.67 -6.52 33.89 -7.31 32.46 -8.89C31.03 -10.47 30.32 -12.78 30.32 -15.83C30.32 -18.88 31.03 -21.19 32.46 -22.78C33.89 -24.36 35.67 -25.15 37.81 -25.15C39.67 -25.15 41.22 -24.66 42.44 -23.69C43.66 -22.72 44.44 -21.39 44.78 -19.72L53.3 -19.72C52.61 -23.53 50.9 -26.54 48.18 -28.75Z M88.5 -14.29C88.69 -15.32 88.79 -16.23 88.79 -17.03C88.79 -19.93 88.15 -22.51 86.87 -24.78C85.6 -27.04 83.79 -28.82 81.44 -30.12C79.1 -31.42 76.37 -32.06 73.24 -32.06C70.16 -32.06 67.41 -31.42 65.01 -30.12C62.61 -28.82 60.74 -26.95 59.41 -24.49C58.08 -22.03 57.41 -19.15 57.41 -15.83C57.41 -12.52 58.08 -9.64 59.41 -7.2C60.74 -4.76 62.61 -2.89 65.01 -1.57C67.41 -0.26 70.16 0.4 73.24 0.4C75.87 0.4 78.26 -0.1 80.41 -1.09C82.57 -2.08 84.33 -3.45 85.7 -5.2C87.07 -6.95 87.97 -8.93 88.39 -11.14L79.87 -11.14C79.53 -9.58 78.74 -8.34 77.5 -7.43C76.26 -6.52 74.71 -6.06 72.84 -6.06C70.75 -6.06 68.99 -6.73 67.58 -8.06C66.17 -9.39 65.41 -11.47 65.3 -14.29ZM78.64 -23.72C80.11 -22.38 80.79 -20.42 80.67 -17.83L65.3 -17.83C65.45 -20.42 66.27 -22.38 67.75 -23.72C69.24 -25.05 71.07 -25.72 73.24 -25.72C75.38 -25.72 77.18 -25.05 78.64 -23.72Z"/></g><g id="SvgjsG1104" class="text" transform="translate(185.0264627617039, 58.769219947006555) scale(1)" light-content="false" fill="#0fbe62"><path d="M-59.58 -36.86C-62.9 -39.45 -67.07 -40.75 -72.1 -40.75C-75.98 -40.75 -79.4 -39.88 -82.33 -38.15C-85.26 -36.42 -87.54 -33.99 -89.16 -30.86C-90.78 -27.74 -91.59 -24.18 -91.59 -20.18C-91.59 -16.21 -90.78 -12.67 -89.16 -9.54C-87.54 -6.42 -85.25 -3.99 -82.3 -2.26C-79.35 -0.52 -75.95 0.34 -72.1 0.34C-67.07 0.34 -62.9 -0.95 -59.58 -3.54C-56.27 -6.13 -54.08 -9.66 -53.01 -14.12L-61.47 -14.12C-62.34 -11.94 -63.71 -10.23 -65.55 -8.97C-67.4 -7.72 -69.62 -7.09 -72.21 -7.09C-74.35 -7.09 -76.27 -7.62 -77.99 -8.69C-79.7 -9.75 -81.03 -11.28 -81.99 -13.26C-82.94 -15.24 -83.41 -17.55 -83.41 -20.18C-83.41 -22.84 -82.94 -25.17 -81.99 -27.15C-81.03 -29.13 -79.7 -30.65 -77.99 -31.72C-76.27 -32.79 -74.35 -33.32 -72.21 -33.32C-69.62 -33.32 -67.4 -32.69 -65.55 -31.43C-63.71 -30.18 -62.34 -28.46 -61.47 -26.29L-53.01 -26.29C-54.08 -30.75 -56.27 -34.27 -59.58 -36.86Z M-24 -30.12C-26.46 -31.42 -29.23 -32.06 -32.32 -32.06C-35.41 -32.06 -38.18 -31.42 -40.64 -30.12C-43.09 -28.82 -45.03 -26.95 -46.44 -24.49C-47.85 -22.03 -48.55 -19.15 -48.55 -15.83C-48.55 -12.52 -47.85 -9.64 -46.44 -7.2C-45.03 -4.76 -43.09 -2.89 -40.64 -1.57C-38.18 -0.26 -35.41 0.4 -32.32 0.4C-29.23 0.4 -26.46 -0.26 -24 -1.57C-21.55 -2.89 -19.61 -4.76 -18.2 -7.2C-16.79 -9.64 -16.09 -12.52 -16.09 -15.83C-16.09 -19.15 -16.79 -22.03 -18.2 -24.49C-19.61 -26.95 -21.55 -28.82 -24 -30.12ZM-38.04 -22.72C-36.47 -24.3 -34.57 -25.09 -32.32 -25.09C-30.07 -25.09 -28.17 -24.3 -26.6 -22.72C-25.04 -21.14 -24.26 -18.84 -24.26 -15.83C-24.26 -12.82 -25.04 -10.53 -26.6 -8.94C-28.17 -7.36 -30.07 -6.57 -32.32 -6.57C-34.57 -6.57 -36.47 -7.36 -38.04 -8.94C-39.6 -10.53 -40.38 -12.82 -40.38 -15.83C-40.38 -18.84 -39.6 -21.14 -38.04 -22.72Z M-2.31 -42.29L-10.37 -42.29L-10.37 0L-2.31 0Z M13.06 -42.29L5 -42.29L5 0L13.06 0Z M39.64 -30.18C37.73 -31.43 35.44 -32.06 32.78 -32.06C30.11 -32.06 27.71 -31.42 25.58 -30.12C23.44 -28.82 21.78 -26.95 20.58 -24.49C19.37 -22.03 18.77 -19.15 18.77 -15.83C18.77 -12.52 19.37 -9.63 20.58 -7.17C21.78 -4.72 23.44 -2.84 25.58 -1.54C27.71 -0.25 30.11 0.4 32.78 0.4C35.44 0.4 37.73 -0.24 39.64 -1.51C41.54 -2.79 42.89 -4.5 43.69 -6.63L43.69 0L51.69 0L51.69 -31.66L43.69 -31.66L43.69 -25.09C42.89 -27.22 41.54 -28.92 39.64 -30.18ZM29.23 -22.58C30.76 -24.21 32.78 -25.03 35.29 -25.03C37.73 -25.03 39.74 -24.2 41.32 -22.55C42.9 -20.89 43.69 -18.65 43.69 -15.83C43.69 -13.05 42.9 -10.83 41.32 -9.17C39.74 -7.52 37.73 -6.69 35.29 -6.69C32.78 -6.69 30.76 -7.5 29.23 -9.12C27.71 -10.74 26.95 -12.97 26.95 -15.83C26.95 -18.69 27.71 -20.94 29.23 -22.58Z M85.13 -30.12C83 -31.42 80.6 -32.06 77.93 -32.06C75.26 -32.06 72.98 -31.43 71.1 -30.18C69.21 -28.92 67.87 -27.22 67.07 -25.09L67.07 -42.29L59.01 -42.29L59.01 0L67.07 0L67.07 -6.63C67.87 -4.5 69.21 -2.79 71.1 -1.51C72.98 -0.24 75.26 0.4 77.93 0.4C80.6 0.4 83 -0.25 85.13 -1.54C87.26 -2.84 88.93 -4.72 90.13 -7.17C91.33 -9.63 91.93 -12.52 91.93 -15.83C91.93 -19.15 91.33 -22.03 90.13 -24.49C88.93 -26.95 87.26 -28.82 85.13 -30.12ZM69.38 -22.55C70.96 -24.2 72.97 -25.03 75.41 -25.03C77.93 -25.03 79.95 -24.21 81.47 -22.58C83 -20.94 83.76 -18.69 83.76 -15.83C83.76 -12.97 83 -10.74 81.47 -9.12C79.95 -7.5 77.93 -6.69 75.41 -6.69C72.97 -6.69 70.96 -7.52 69.38 -9.17C67.8 -10.83 67.01 -13.05 67.01 -15.83C67.01 -18.65 67.8 -20.89 69.38 -22.55Z"/></g><g id="SvgjsG1105" class="55CSyjmvek" transform="translate(9.8228668429559, 14.918092543815002) scale(0.5807301491879028)" light-content="true" fill="#ffffff"><path d="M92.192 9.415l-.141-1.639-1.591-.415a29.371 29.371 0 0 0-26.371 5.952C57.087 19.22 53.264 28.089 53.71 37.218a61.047 61.047 0 0 0-1.602 2.129c-.027-8.264-2.624-16.431-7.626-23.242C36.937 5.826 24.716-.234 11.903.007l-1.645.029-.521 1.561c-4.066 12.167-1.97 25.591 5.606 35.906 6.592 8.979 16.756 14.724 27.76 15.879.182 1.969.006 4.021-.59 6.276a65.538 65.538 0 0 0-1.012 4.515l-.098.527a67.822 67.822 0 0 0-.53 3.352 18.171 18.171 0 0 0-6.671-5.854 18.244 18.244 0 0 0-8.257-1.993c-2.942 0-5.878.725-8.489 2.097L16 63.068l.233 1.627a18.225 18.225 0 0 0 9.727 13.628 18.24 18.24 0 0 0 8.261 1.995h.001c2.053 0 4.1-.361 6.039-1.041.221 10.988 2.697 18.716 2.83 19.119.084.256.209.485.363.688.002.002.004.009.006.01l.001-.001a2.331 2.331 0 0 0 2.565.792 2.329 2.329 0 0 0 1.492-2.935c-.005-.015-.067-.21-.17-.57-.001-.003-.003-.007-.003-.011-.065-.229-.148-.53-.241-.887l-.061-.232-.06-.235a39.209 39.209 0 0 0-.082-.331l-.053-.224a47.131 47.131 0 0 1-.107-.455l-.039-.169c-1.035-4.539-2.547-13.596-1.341-24.124l.052-.435c.052-.43.107-.861.17-1.296l.055-.383c.071-.478.146-.958.229-1.44l.024-.142c.294-1.7.665-3.427 1.124-5.171.041-.154.073-.305.111-.457a57.873 57.873 0 0 1 2.288-6.812l.151-.003.521-1.561.016-.053a55.05 55.05 0 0 1 6.75-11.299c2.006.424 4.054.65 6.107.65h.001a29.377 29.377 0 0 0 18.907-6.911c7.282-6.136 11.141-15.477 10.325-24.984zM19.098 34.748c-6.352-8.649-8.336-19.775-5.435-30.074 10.684.319 20.74 5.571 27.066 14.188 6.065 8.258 8.137 18.772 5.788 28.67-1.935-5.265-5.825-10.29-10.636-16.504-1.975-2.55-4.211-5.438-6.523-8.621a2.328 2.328 0 0 0-3.768 2.736c2.354 3.241 4.613 6.16 6.607 8.736 4.557 5.885 7.974 10.307 9.707 14.658-9.054-1.398-17.329-6.33-22.806-13.789zm15.127 40.913c-2.148 0-4.215-.5-6.142-1.485a13.554 13.554 0 0 1-6.884-8.453 13.638 13.638 0 0 1 4.749-.859c2.145 0 4.211.499 6.138 1.483a13.563 13.563 0 0 1 6.886 8.456 13.662 13.662 0 0 1-4.747.858zm44.643-44.822a24.704 24.704 0 0 1-15.905 5.814c-.863 0-1.726-.05-2.584-.14 4.047-4.33 8.874-8.202 14.481-11.598a2.33 2.33 0 0 0-2.413-3.984c-5.443 3.297-9.979 6.917-13.771 10.711.969-5.703 3.909-10.968 8.417-14.77a24.704 24.704 0 0 1 20.545-5.376c.13 7.411-3.076 14.543-8.77 19.343z"/></g></g></svg>